<svg width="20" height="20" viewBox="0 0 20 20" fill="none" xmlns="http://www.w3.org/2000/svg">
<path fill-rule="evenodd" clip-rule="evenodd" d="M7 6.17071C8.16519 6.58254 9 7.69378 9 9C9 10.3062 8.16519 11.4175 7 11.8293L7 17H5L5 11.8293C3.83481 11.4175 3 10.3062 3 9C3 7.69378 3.83481 6.58254 5 6.17071L5 3H7V6.17071ZM5 9C5 8.44772 5.44772 8 6 8C6.55228 8 7 8.44772 7 9C7 9.55228 6.55228 10 6 10C5.44772 10 5 9.55228 5 9ZM15 8.17071C16.1652 8.58254 17 9.69378 17 11C17 12.3062 16.1652 13.4175 15 13.8293V17H13V13.8293C11.8348 13.4175 11 12.3062 11 11C11 9.69378 11.8348 8.58254 13 8.17071V3H15V8.17071ZM13 11C13 10.4477 13.4477 10 14 10C14.5523 10 15 10.4477 15 11C15 11.5523 14.5523 12 14 12C13.4477 12 13 11.5523 13 11Z" fill="#5C426C"/>
</svg>
