<svg width="20" height="20" viewBox="0 0 20 20" fill="none" xmlns="http://www.w3.org/2000/svg">
<path fill-rule="evenodd" clip-rule="evenodd" d="M5.92857 3C4.31117 3 3 4.31117 3 5.92857C3 7.54598 4.31117 8.85714 5.92857 8.85714H7.15385V11H7L6 11C4.34315 11 3 12.3431 3 14C3 15.6569 4.34315 17 6 17C7.65685 17 9 15.6569 9 14V13H9.15385H10.8462V14C10.8462 15.6569 12.1893 17 13.8462 17H14C15.6569 17 17 15.6569 17 14C17 12.3431 15.6569 11 14 11H13V8.85714H14.0714C15.6888 8.85714 17 7.54598 17 5.92857C17 4.31117 15.6888 3 14.0714 3H14C12.3431 3 11 4.34315 11 6V6.85714H9.15385V6C9.15385 4.34315 7.8107 3 6.15385 3H5.92857ZM7 13H6C5.44772 13 5 13.4477 5 14C5 14.5523 5.44772 15 6 15C6.55228 15 7 14.5523 7 14L7 13ZM11 11L9.15385 11V8.85714H11V11ZM12.8462 14V13H13H14C14.5523 13 15 13.4477 15 14C15 14.5523 14.5523 15 14 15H13.8462C13.2939 15 12.8462 14.5523 12.8462 14ZM13 6.85714H14.0714C14.5843 6.85714 15 6.44141 15 5.92857C15 5.41574 14.5843 5 14.0714 5H14C13.4477 5 13 5.44772 13 6V6.85714ZM7.15385 6V6.85714H5.92857C5.41574 6.85714 5 6.44141 5 5.92857C5 5.41574 5.41574 5 5.92857 5H6.15385C6.70613 5 7.15385 5.44772 7.15385 6Z" fill="#5C426C"/>
</svg>
