<svg width="20" height="20" viewBox="0 0 20 20" fill="none" xmlns="http://www.w3.org/2000/svg">
<path fill-rule="evenodd" clip-rule="evenodd" d="M12.5 6C12.5 7.38071 11.3807 8.5 10 8.5C8.61929 8.5 7.5 7.38071 7.5 6C7.5 4.61929 8.61929 3.5 10 3.5C11.3807 3.5 12.5 4.61929 12.5 6ZM12.3615 10.4083C13.932 9.56523 15 7.90733 15 6C15 3.23858 12.7614 1 10 1C7.23858 1 5 3.23858 5 6C5 7.90733 6.06797 9.56523 7.63855 10.4083C4.93446 11.3772 3 13.9627 3 17H5C5 14.2386 7.23858 12 10 12C12.7614 12 15 14.2386 15 17H17C17 13.9627 15.0655 11.3772 12.3615 10.4083Z" fill="#EB6A22"/>
</svg>
