<svg width="20" height="20" viewBox="0 0 20 20" fill="none" xmlns="http://www.w3.org/2000/svg">
<path fill-rule="evenodd" clip-rule="evenodd" d="M3 8C3 6.89543 3.89543 6 5 6H12C13.1046 6 14 6.89543 14 8V15C14 16.1046 13.1046 17 12 17H5C3.89543 17 3 16.1046 3 15V8ZM12 8H5V15H12V8Z" fill="#5C426C"/>
<path fill-rule="evenodd" clip-rule="evenodd" d="M14 5.10525L6.00001 5.10528L6 3.10528L14 3.10525C15.6569 3.10524 17 4.44839 17 6.10525V14H15V6.10525C15 5.55296 14.5523 5.10525 14 5.10525Z" fill="#5C426C"/>
</svg>
