<svg width="20" height="20" viewBox="0 0 20 20" fill="none" xmlns="http://www.w3.org/2000/svg">
<path fill-rule="evenodd" clip-rule="evenodd" d="M15.0499 5.15243C14.2849 4.35559 13.0189 4.32971 12.222 5.09463L9.33639 7.86467L7.95137 6.42185L10.837 3.65182C12.4307 2.12197 14.9628 2.17372 16.4927 3.76741C18.0225 5.36111 17.9708 7.89324 16.3771 9.42309L13.4914 12.1931L12.1064 10.7503L14.9921 7.98027C15.7889 7.21534 15.8148 5.94928 15.0499 5.15243Z" fill="#5C426C"/>
<path fill-rule="evenodd" clip-rule="evenodd" d="M4.95014 14.8476C5.71506 15.6444 6.98113 15.6703 7.77798 14.9054L10.6636 12.1353L12.0486 13.5781L9.16299 16.3482C7.5693 17.878 5.03717 17.8263 3.50732 16.2326C1.97747 14.6389 2.02923 12.1068 3.62292 10.5769L6.50855 7.80687L7.89357 9.24969L5.00794 12.0197C4.21109 12.7847 4.18521 14.0507 4.95014 14.8476Z" fill="#5C426C"/>
<path fill-rule="evenodd" clip-rule="evenodd" d="M7.14326 11.3561L11.4717 7.20106L12.8567 8.64388L8.52828 12.7989L7.14326 11.3561Z" fill="#5C426C"/>
</svg>
