<svg width="20" height="20" viewBox="0 0 20 20" fill="none" xmlns="http://www.w3.org/2000/svg">
<path fill-rule="evenodd" clip-rule="evenodd" d="M10 18C14.4183 18 18 14.4183 18 10C18 5.58172 14.4183 2 10 2C5.58172 2 2 5.58172 2 10C2 14.4183 5.58172 18 10 18ZM13.1237 15.1237C12.2138 15.6796 11.1443 16 10 16C8.73901 16 7.56887 15.611 6.60305 14.9465L8.05397 13.4955C8.62996 13.8169 9.2936 14 10 14C10.5869 14 11.1444 13.8736 11.6465 13.6465L13.1237 15.1237ZM14.6367 13.8083C15.4886 12.7723 16 11.4459 16 10C16 8.48298 15.437 7.09745 14.5085 6.04096L13.0899 7.45962C13.6585 8.15048 14 9.03536 14 10C14 10.8933 13.7072 11.7181 13.2123 12.3839L14.6367 13.8083ZM6.60496 12.1161C6.22156 11.5023 6 10.777 6 10C6 9.15083 6.26461 8.36347 6.71587 7.71586L5.28675 6.28675C4.4809 7.30821 4 8.59795 4 10C4 11.3306 4.43313 12.56 5.16608 13.555L6.60496 12.1161ZM10 6C9.36725 6 8.76881 6.14692 8.23694 6.40851L6.7707 4.94227C7.70298 4.34579 8.81111 4 10 4C11.0715 4 12.0774 4.28087 12.9481 4.773L11.4501 6.27096C11.0005 6.096 10.5115 6 10 6ZM12 10C12 11.1046 11.1046 12 10 12C8.89543 12 8 11.1046 8 10C8 8.89543 8.89543 8 10 8C11.1046 8 12 8.89543 12 10Z" fill="#5C426C"/>
</svg>
