<svg width="20" height="20" fill="none" xmlns="http://www.w3.org/2000/svg"><path fill-rule="evenodd" clip-rule="evenodd" d="M5.929 3a2.929 2.929 0 0 0 0 5.857h1.225V11H6a3 3 0 1 0 3 3v-1H10.846v1a3 3 0 0 0 3 3H14a3 3 0 1 0 0-6h-1V8.857h1.071a2.929 2.929 0 1 0 0-5.857H14a3 3 0 0 0-3 3v.857H9.154V6a3 3 0 0 0-3-3h-.225zM7 13H6a1 1 0 1 0 1 1v-1zm4-2H9.154V8.857H11V11zm1.846 3v-1H14a1 1 0 1 1 0 2h-.154a1 1 0 0 1-1-1zM13 6.857h1.071a.929.929 0 1 0 0-1.857H14a1 1 0 0 0-1 1v.857zM7.154 6v.857H5.929a.929.929 0 0 1 0-1.857h.225a1 1 0 0 1 1 1z" fill="#5C426C"/></svg>