<svg width="20" height="20" fill="none" xmlns="http://www.w3.org/2000/svg"><path fill-rule="evenodd" clip-rule="evenodd" d="M10 18a8 8 0 1 0 0-16 8 8 0 0 0 0 16zm3.124-2.876c-.91.556-1.98.876-3.124.876a5.973 5.973 0 0 1-3.397-1.053l1.451-1.451c.576.32 1.24.504 1.946.504.587 0 1.144-.126 1.646-.354l1.478 1.478zm1.513-1.316A5.975 5.975 0 0 0 16 10a5.977 5.977 0 0 0-1.492-3.959L13.09 7.46c.569.69.91 1.575.91 2.54 0 .893-.293 1.718-.788 2.384l1.425 1.424zm-8.032-1.692A3.981 3.981 0 0 1 6 10c0-.85.265-1.637.716-2.284l-1.43-1.43A5.974 5.974 0 0 0 4 10c0 1.33.433 2.56 1.166 3.555l1.439-1.439zM10 6c-.633 0-1.231.147-1.763.409L6.77 4.942A5.972 5.972 0 0 1 10 4c1.072 0 2.077.28 2.948.773L11.45 6.271A3.99 3.99 0 0 0 10 6zm2 4a2 2 0 1 1-4 0 2 2 0 0 1 4 0z" fill="#5C426C"/></svg>