<?xml version="1.0" encoding="utf-8"?><svg xmlns="http://www.w3.org/2000/svg" xmlns:xlink="http://www.w3.org/1999/xlink"><symbol fill="none" viewBox="0 0 20 20" id="icon_account" xmlns="http://www.w3.org/2000/svg"><path fill-rule="evenodd" clip-rule="evenodd" d="M12.5 6a2.5 2.5 0 11-5 0 2.5 2.5 0 015 0zm-.139 4.408a5 5 0 10-4.723 0A7.003 7.003 0 003 17h2a5 5 0 0110 0h2a7.003 7.003 0 00-4.639-6.592z" fill="#5C426C"/></symbol><symbol fill="none" viewBox="0 0 20 20" id="icon_attachment" xmlns="http://www.w3.org/2000/svg"><path fill-rule="evenodd" clip-rule="evenodd" d="M15.05 5.152a2 2 0 00-2.828-.057l-2.886 2.77-1.385-1.443 2.886-2.77a4 4 0 015.54 5.771l-2.886 2.77-1.385-1.443 2.886-2.77a2 2 0 00.058-2.828zm-10.1 9.696a2 2 0 002.828.057l2.886-2.77 1.385 1.443-2.886 2.77a4 4 0 01-5.54-5.771l2.886-2.77L7.894 9.25l-2.886 2.77a2 2 0 00-.058 2.828z" fill="#5C426C"/><path fill-rule="evenodd" clip-rule="evenodd" d="M7.143 11.356l4.329-4.155 1.385 1.443-4.329 4.155-1.385-1.443z" fill="#5C426C"/></symbol><symbol fill="none" viewBox="0 0 20 20" id="icon_bold" xmlns="http://www.w3.org/2000/svg"><path fill-rule="evenodd" clip-rule="evenodd" d="M8 6v3h2.5a1.5 1.5 0 000-3H8zm5.352 3.53A3.5 3.5 0 0010.5 4H6v12h5.5a3.5 3.5 0 001.852-6.47zM8 14h3.5a1.5 1.5 0 000-3H8v3z" fill="#5C426C"/></symbol><symbol fill="none" viewBox="0 0 20 20" id="icon_code" xmlns="http://www.w3.org/2000/svg"><path fill-rule="evenodd" clip-rule="evenodd" d="M10.338 9.5L5.083 3.588 3.588 4.917 7.662 9.5l-4.074 4.583 1.495 1.329L10.338 9.5zM16 14h-6v2h6v-2z" fill="#5C426C"/></symbol><symbol fill="none" viewBox="0 0 20 20" id="icon_command-key" xmlns="http://www.w3.org/2000/svg"><path fill-rule="evenodd" clip-rule="evenodd" d="M5.929 3a2.929 2.929 0 000 5.857h1.225V11H6a3 3 0 103 3v-1h1.846v1a3 3 0 003 3H14a3 3 0 100-6h-1V8.857h1.071a2.929 2.929 0 100-5.857H14a3 3 0 00-3 3v.857H9.154V6a3 3 0 00-3-3h-.225zM7 13H6a1 1 0 101 1v-1zm4-2H9.154V8.857H11V11zm1.846 3v-1H14a1 1 0 110 2h-.154a1 1 0 01-1-1zM13 6.857h1.071a.929.929 0 100-1.857H14a1 1 0 00-1 1v.857zM7.154 6v.857H5.929a.929.929 0 010-1.857h.225a1 1 0 011 1z" fill="#5C426C"/></symbol><symbol fill="none" viewBox="0 0 20 20" id="icon_delete" xmlns="http://www.w3.org/2000/svg"><path fill-rule="evenodd" clip-rule="evenodd" d="M7 5v2h6V5H7zM5 5v2H3v2h2v6a2 2 0 002 2h6a2 2 0 002-2V9h2V7h-2V5a2 2 0 00-2-2H7a2 2 0 00-2 2zm2 10V9h2v6H7zm4 0h2V9h-2v6z" fill="#5C426C"/></symbol><symbol fill="none" viewBox="0 0 20 20" id="icon_document" xmlns="http://www.w3.org/2000/svg"><path fill-rule="evenodd" clip-rule="evenodd" d="M16 15a2 2 0 01-2 2H6a2 2 0 01-2-2V5a2 2 0 012-2h6.414L16 6.586V15zm-2 0V8h-3V5H6v10h8zm-2-4H7V9h5v2zm-5 3h6v-2H7v2z" fill="#5C426C"/></symbol><symbol fill="none" viewBox="0 0 20 20" id="icon_download" xmlns="http://www.w3.org/2000/svg"><path fill-rule="evenodd" clip-rule="evenodd" d="M6 15h2v2H6a2 2 0 01-2-2V5a2 2 0 012-2h6.414L16 6.586V9.5h-2V8h-3V5H6v10zm3.36-.232l1.28-1.536L12 14.365V11h2v3.365l1.36-1.133 1.28 1.536-2.64 2.2V17h-.038l-.962.802-.962-.802H12v-.032l-2.64-2.2z" fill="#5C426C"/></symbol><symbol fill="none" viewBox="0 0 20 20" id="icon_duplicate" xmlns="http://www.w3.org/2000/svg"><path fill-rule="evenodd" clip-rule="evenodd" d="M3 8a2 2 0 012-2h7a2 2 0 012 2v7a2 2 0 01-2 2H5a2 2 0 01-2-2V8zm9 0H5v7h7V8z" fill="#5C426C"/><path fill-rule="evenodd" clip-rule="evenodd" d="M14 5.105H6v-2h8a3 3 0 013 3V14h-2V6.105a1 1 0 00-1-1z" fill="#5C426C"/></symbol><symbol fill="none" viewBox="0 0 20 20" id="icon_heading" xmlns="http://www.w3.org/2000/svg"><path fill-rule="evenodd" clip-rule="evenodd" d="M6 16v-5h3v5h2V4H9v5H6V4H4v12h2zm10-8h-4v2h2v6h2V8z" fill="#5C426C"/></symbol><symbol fill="none" viewBox="0 0 20 20" id="icon_help" xmlns="http://www.w3.org/2000/svg"><path fill-rule="evenodd" clip-rule="evenodd" d="M10 18a8 8 0 100-16 8 8 0 000 16zm3.124-2.876c-.91.556-1.98.876-3.124.876a5.973 5.973 0 01-3.397-1.053l1.451-1.451a3.997 3.997 0 003.592.15l1.478 1.478zm1.513-1.316A5.975 5.975 0 0016 10a5.977 5.977 0 00-1.492-3.959L13.09 7.46c.569.69.91 1.575.91 2.54 0 .893-.293 1.718-.788 2.384l1.425 1.424zm-8.032-1.692A3.981 3.981 0 016 10c0-.85.265-1.637.716-2.284l-1.43-1.43A5.974 5.974 0 004 10c0 1.33.433 2.56 1.166 3.555l1.439-1.439zM10 6c-.633 0-1.231.147-1.763.409L6.77 4.942A5.972 5.972 0 0110 4c1.072 0 2.077.28 2.948.773L11.45 6.271A3.99 3.99 0 0010 6zm2 4a2 2 0 11-4 0 2 2 0 014 0z" fill="#5C426C"/></symbol><symbol fill="none" viewBox="0 0 20 20" id="icon_history" xmlns="http://www.w3.org/2000/svg"><path fill-rule="evenodd" clip-rule="evenodd" d="M6.513 8H8v2H3V5h2v1.645a6.042 6.042 0 0110.925 4.645 6.04 6.04 0 01-7.19 4.61l-.977-.213.427-1.954.977.214A4.04 4.04 0 106.512 8z" fill="#5C426C"/></symbol><symbol fill="none" viewBox="0 0 20 20" id="icon_home" xmlns="http://www.w3.org/2000/svg"><path fill-rule="evenodd" clip-rule="evenodd" d="M8.791 3.662a2 2 0 012.418 0l4.604 3.493A3 3 0 0117 9.545V15a2 2 0 01-2 2h-2a2 2 0 01-2-2v-3.5H9V15a2 2 0 01-2 2H5a2 2 0 01-2-2V9.545a3 3 0 011.187-2.39L8.79 3.662zm5.813 5.086L10 5.255 5.396 8.748A1 1 0 005 9.545V15h2v-3.5a2 2 0 012-2h2a2 2 0 012 2V15h2V9.545a1 1 0 00-.396-.797z" fill="#5C426C"/></symbol><symbol fill="none" viewBox="0 0 20 20" id="icon_italic" xmlns="http://www.w3.org/2000/svg"><path fill-rule="evenodd" clip-rule="evenodd" d="M11.018 4H14v2h-2.18l-1.6 8H12v2H9.02a.85.85 0 01-.038 0H6v-2h2.18l1.6-8H8V4h3.018z" fill="#5C426C"/></symbol><symbol fill="none" viewBox="0 0 20 20" id="icon_keyboard" xmlns="http://www.w3.org/2000/svg"><path fill-rule="evenodd" clip-rule="evenodd" d="M2 6a2 2 0 012-2h12a2 2 0 012 2v8a2 2 0 01-2 2H4a2 2 0 01-2-2V6zm14 0H4v8h12V6zM6 13v-2h8v2H6zm-1-3h4V8H5v2zm7 0h-2V8h2v2zm1 0h2V8h-2v2z" fill="#5C426C"/></symbol><symbol fill="none" viewBox="0 0 20 20" id="icon_log-out" xmlns="http://www.w3.org/2000/svg"><path fill-rule="evenodd" clip-rule="evenodd" d="M6 5h8v10H6v2h8a2 2 0 002-2V5a2 2 0 00-2-2H6v2zm.232 1.36l1.536 1.28L6.635 9H10v2H6.635l1.133 1.36-1.536 1.28-2.2-2.64H4v-.038L3.198 10 4 9.038V9h.032l2.2-2.64z" fill="#5C426C"/></symbol><symbol fill="none" viewBox="0 0 20 20" id="icon_new-document" xmlns="http://www.w3.org/2000/svg"><path fill-rule="evenodd" clip-rule="evenodd" d="M6 15h3v2H6a2 2 0 01-2-2V5a2 2 0 012-2h6.414L16 6.586V10h-2V8h-3V5H6v10zm6 0h-2v-2h2v-2h2v2h2v2h-2v2h-2v-2z" fill="#5C426C"/></symbol><symbol fill="none" viewBox="0 0 20 20" id="icon_new-package" xmlns="http://www.w3.org/2000/svg"><path fill-rule="evenodd" clip-rule="evenodd" d="M17 3H6.5L3 7.667V15a2 2 0 002 2h5.5v-2H5V9h9.054L15 7.487V10.5h2V3zm-4.054 4H6l1.5-2h6.696l-1.25 2zM14 16h-2v-2h-2v-2h2v-2h2v2h2v2h-2v2z" fill="#5C426C"/></symbol><symbol fill="none" viewBox="0 0 20 20" id="icon_option-key" xmlns="http://www.w3.org/2000/svg"><path fill-rule="evenodd" clip-rule="evenodd" d="M5 4H4v2h3.442l2.595 9.27.204.73H16v-2h-4.242L9.163 4.73 8.958 4H5zm7 0h-1v2h5V4h-4z" fill="#5C426C"/></symbol><symbol fill="none" viewBox="0 0 20 20" id="icon_return-key" xmlns="http://www.w3.org/2000/svg"><path fill-rule="evenodd" clip-rule="evenodd" d="M16 5V4h-2v8H8.414l1.293-1.293.707-.707L9 8.586l-.707.707-3 3-.707.707.707.707 3 3 .707.707L10.414 16l-.707-.707L8.414 14H16V5z" fill="#5C426C"/></symbol><symbol fill="none" viewBox="0 0 20 20" id="icon_run-code" xmlns="http://www.w3.org/2000/svg"><path fill-rule="evenodd" clip-rule="evenodd" d="M5.528 3.118a1 1 0 011.027.05l9 6a1 1 0 010 1.664l-9 6A1 1 0 015 16V4a1 1 0 01.528-.882zM7 5.868v8.264L13.197 10 7 5.869z" fill="#5C426C"/></symbol><symbol fill="none" viewBox="0 0 20 20" id="icon_search" xmlns="http://www.w3.org/2000/svg"><path fill-rule="evenodd" clip-rule="evenodd" d="M12.781 11.953a5.5 5.5 0 10-1.522 1.306L15 17l1.414-1.414-3.633-3.633zM12 8.5a3.5 3.5 0 11-7 0 3.5 3.5 0 017 0z" fill="#5C426C"/></symbol><symbol fill="none" viewBox="0 0 20 20" id="icon_settings" xmlns="http://www.w3.org/2000/svg"><path fill-rule="evenodd" clip-rule="evenodd" d="M7 6.17a3.001 3.001 0 010 5.66V17H5v-5.17a3.001 3.001 0 010-5.66V3h2v3.17zM5 9a1 1 0 112 0 1 1 0 01-2 0zm10-.83a3.001 3.001 0 010 5.66V17h-2v-3.17a3.001 3.001 0 010-5.66V3h2v5.17zM13 11a1 1 0 112 0 1 1 0 01-2 0z" fill="#5C426C"/></symbol><symbol fill="none" viewBox="0 0 20 20" id="icon_text" xmlns="http://www.w3.org/2000/svg"><path fill-rule="evenodd" clip-rule="evenodd" d="M4 4h12v4.357h-2V6h-3v8h2v2H7v-2h2V6H6v2.357H4V4z" fill="#5C426C"/></symbol></svg>